<svg width="1085" height="447" xmlns="http://www.w3.org/2000/svg" xmlns:xlink="http://www.w3.org/1999/xlink" xml:space="preserve" overflow="hidden"><g transform="translate(-97 -273)"><g><g><g><g><g><path d="M200.262 348.966 199.344 348.966 199.344 598.221 960.269 598.221" stroke="#000000" stroke-width="5.37261" stroke-linecap="butt" stroke-linejoin="round" stroke-miterlimit="10" stroke-opacity="1" fill="none" fill-rule="evenodd" transform="matrix(1.0005 0 0 1 98 8.46824)"/><path d="M219.14 571.793C223.513 572.024 236.789 574.096 245.382 573.175 253.976 572.253 260.192 571.406 270.703 566.265 281.215 561.123 299.552 552.299 308.452 542.326 317.353 532.351 319.502 516.163 324.105 506.419 328.709 496.675 330.477 488.465 336.077 483.861 341.679 479.257 349.888 478.718 357.714 478.795 365.54 478.872 375.132 480.179 383.035 484.321 390.938 488.465 398.917 498.285 405.131 503.656 411.347 509.027 415.335 513.556 420.323 516.548 425.312 519.541 424.241 520.922 435.06 521.611 445.879 522.3 470.965 524.066 485.237 520.689 499.508 517.313 512.324 505.88 520.687 501.353 529.052 496.825 529.664 496.594 535.419 493.527 541.174 490.457 550.306 484.244 555.217 482.941 560.129 481.635 561.97 483.32 564.886 485.699 567.801 488.079 569.721 493.835 572.712 497.21 575.704 500.588 580.382 503.118 582.837 505.959 585.293 508.797 584.911 512.021 587.443 514.245 589.976 516.469 594.274 518.923 598.033 519.308 601.794 519.691 606.702 520.922 610.001 516.548 613.3 512.175 615.909 501.736 617.827 493.064 619.745 484.395 618.827 471.583 621.513 464.523 624.197 457.466 628.952 451.251 633.94 450.714 638.927 450.177 647.216 456.772 651.435 461.3 655.656 465.825 655.502 469.586 659.261 477.873 663.022 486.161 664.863 503.577 673.993 511.022 683.124 518.464 692.254 517.161 714.045 522.531 735.837 527.904 781.568 538.796 804.741 543.246 827.913 547.697 829.216 546.703 853.08 549.235 876.943 551.767 932.115 556.905 947.921 558.438" stroke="#FF0000" stroke-width="3.58174" stroke-linecap="butt" stroke-linejoin="round" stroke-miterlimit="10" stroke-dasharray="3.58174 10.7452" stroke-opacity="1" fill="none" fill-rule="evenodd" transform="matrix(1.0005 0 0 1 98 8.46824)"/><path d="M484.459 614.684 484.459 611.382 501.165 611.382 501.165 614.684 494.701 614.684 494.701 634.271 490.951 634.271 490.951 614.684 484.459 614.684ZM503.797 634.271 503.797 617.566 507.434 617.566 507.434 634.271 503.797 634.271ZM503.797 614.74 503.797 610.879 507.434 610.879 507.434 614.74 503.797 614.74ZM515.486 634.271 511.849 634.271 511.849 617.566 515.458 617.566 515.458 618.601C517.044 617.668 518.49 617.202 519.795 617.202 521.736 617.202 523.153 617.743 524.048 618.825 526.063 617.743 528.069 617.202 530.066 617.202 532.08 617.202 533.497 617.818 534.319 619.049 535.157 620.281 535.578 622.369 535.578 625.317L535.578 634.271 531.968 634.271 531.968 625.43C531.968 623.619 531.781 622.342 531.409 621.595 531.035 620.831 530.27 620.449 529.113 620.449 528.106 620.449 527.025 620.673 525.868 621.121L525.307 621.345C525.495 621.792 525.588 623.218 525.588 625.625L525.588 634.271 521.978 634.271 521.978 625.68C521.978 623.703 521.792 622.342 521.419 621.595 521.065 620.831 520.289 620.449 519.097 620.449 517.977 620.449 516.942 620.673 515.989 621.121L515.486 621.316 515.486 634.271ZM551.739 631.277 552.663 631.166 552.747 633.881C550.209 634.384 547.962 634.635 546.003 634.635 543.522 634.635 541.74 633.954 540.659 632.593 539.577 631.23 539.036 629.058 539.036 626.073 539.036 620.159 541.452 617.202 546.282 617.202 550.965 617.202 553.306 619.749 553.306 624.842L553.082 627.444 542.7 627.444C542.738 628.825 543.046 629.84 543.624 630.494 544.203 631.148 545.276 631.474 546.843 631.474 548.427 631.474 550.061 631.407 551.739 631.277ZM549.724 624.645C549.724 623.005 549.463 621.857 548.941 621.203 548.419 620.532 547.532 620.197 546.282 620.197 545.034 620.197 544.119 620.542 543.54 621.232 542.981 621.921 542.691 623.06 542.673 624.645L549.724 624.645Z" fill="#000000" fill-rule="nonzero" fill-opacity="1" transform="matrix(1.0005 0 0 1 98 8.46824)"/><path d="M569.488 623.909 661.852 623.504" stroke="#000000" stroke-width="1.79087" stroke-linecap="butt" stroke-linejoin="round" stroke-miterlimit="10" stroke-opacity="1" fill="none" fill-rule="evenodd" transform="matrix(1.0005 0 0 1 98 8.46824)"/><path d="M661.865 626.463 669.979 623.47 661.838 620.548Z" stroke="#000000" stroke-width="1.79087" stroke-linecap="butt" stroke-linejoin="miter" stroke-miterlimit="10" stroke-opacity="1" fill="#000000" fill-rule="evenodd" fill-opacity="1" transform="matrix(1.0005 0 0 1 98 8.46824)"/><path d="M152.299 544.291C152.299 547.108 153.288 548.515 155.266 548.515 156.291 548.515 157.028 548.189 157.476 547.536 157.905 546.864 158.437 545.39 159.071 543.114 159.705 540.82 160.461 539.206 161.338 538.273 162.214 537.34 163.595 536.875 165.479 536.875 167.886 536.875 169.686 537.555 170.88 538.918 172.074 540.279 172.671 542.145 172.671 544.514 172.671 546.416 172.447 548.515 171.999 550.809L171.775 551.984 168.809 551.621C169.201 548.617 169.397 546.323 169.397 544.738 169.397 541.977 168.175 540.596 165.731 540.596 164.761 540.596 164.052 540.913 163.604 541.547 163.138 542.163 162.634 543.562 162.093 545.745 161.552 547.928 160.806 549.559 159.855 550.641 158.885 551.705 157.364 552.237 155.294 552.237 153.223 552.237 151.665 551.565 150.621 550.222 149.557 548.861 149.026 546.995 149.026 544.625 149.026 542.91 149.221 540.875 149.613 538.526L149.809 537.378 152.831 537.657C152.477 540.773 152.299 542.983 152.299 544.291ZM158.707 524.535 158.707 529.152 166.067 529.152C167.429 529.152 168.333 529.05 168.781 528.844 169.21 528.638 169.425 528.126 169.425 527.306L169.341 524.562 172.251 524.396C172.531 525.888 172.671 527.025 172.671 527.809 172.671 529.711 172.242 531.017 171.383 531.726 170.507 532.417 168.865 532.761 166.458 532.761L158.707 532.761 158.707 534.888 155.601 534.888 155.601 532.761 150.76 532.761 150.76 529.152 155.601 529.152 155.601 524.535 158.707 524.535ZM172.307 521.555 155.601 521.555 155.601 517.947 157.616 517.947C156.385 516.063 155.592 514.168 155.238 512.266L158.875 512.266C159.248 514.188 159.743 515.828 160.358 517.191L160.638 517.918 172.307 517.918 172.307 521.555ZM169.313 497.735 169.201 496.813 171.915 496.729C172.419 499.266 172.671 501.514 172.671 503.473 172.671 505.953 171.99 507.735 170.628 508.817 169.266 509.899 167.093 510.44 164.108 510.44 158.194 510.44 155.238 508.024 155.238 503.192 155.238 498.51 157.784 496.168 162.877 496.168L165.479 496.392 165.479 506.774C166.86 506.738 167.876 506.43 168.529 505.851 169.182 505.273 169.509 504.2 169.509 502.633 169.509 501.046 169.443 499.415 169.313 497.735ZM162.681 499.75C161.039 499.75 159.892 500.011 159.239 500.534 158.568 501.057 158.232 501.942 158.232 503.192 158.232 504.442 158.577 505.357 159.267 505.935 159.957 506.494 161.095 506.784 162.681 506.802L162.681 499.75ZM160.75 480.287 168.361 480.287C168.846 480.269 169.21 480.147 169.453 479.923 169.676 479.681 169.826 479.318 169.9 478.832L172.671 478.917C172.671 480.838 172.26 482.321 171.439 483.365 172.26 485.156 172.671 486.947 172.671 488.738 172.671 492.058 170.898 493.718 167.354 493.718 165.675 493.718 164.453 493.27 163.688 492.375 162.923 491.48 162.466 490.09 162.317 488.206L161.953 483.897 160.75 483.897C159.855 483.897 159.23 484.092 158.875 484.484 158.521 484.877 158.344 485.455 158.344 486.22 158.344 487.638 158.428 489.418 158.595 491.564L158.679 492.627 156.105 492.767C155.527 490.342 155.238 488.113 155.238 486.08 155.238 484.028 155.676 482.554 156.553 481.658 157.43 480.745 158.829 480.287 160.75 480.287ZM164.891 487.787C165.022 489.316 165.862 490.081 167.41 490.081 168.94 490.081 169.704 489.4 169.704 488.039 169.704 486.938 169.527 485.763 169.173 484.513L168.977 483.897 164.528 483.897 164.891 487.787ZM172.307 472.079 172.307 475.716 155.601 475.716 155.601 472.106 156.637 472.106C155.704 470.521 155.238 469.076 155.238 467.77 155.238 465.829 155.779 464.412 156.861 463.517 155.779 461.502 155.238 459.496 155.238 457.5 155.238 455.485 155.853 454.066 157.084 453.246 158.316 452.406 160.405 451.987 163.353 451.987L172.307 451.987 172.307 455.598 163.464 455.598C161.655 455.598 160.377 455.784 159.631 456.156 158.866 456.529 158.484 457.295 158.484 458.451 158.484 459.459 158.707 460.54 159.155 461.697L159.379 462.256C159.827 462.07 161.254 461.977 163.66 461.977L172.307 461.977 172.307 465.587 163.716 465.587C161.739 465.587 160.377 465.773 159.631 466.146 158.866 466.5 158.484 467.274 158.484 468.469 158.484 469.588 158.707 470.623 159.155 471.576L159.351 472.079 172.307 472.079ZM158.707 443.353 172.307 443.353 172.307 446.962 158.707 446.962 158.707 448.893 155.601 448.893 155.601 446.962 154.538 446.962C152.15 446.962 150.518 446.616 149.641 445.927 148.746 445.237 148.298 444.005 148.298 442.234L148.606 438.624 151.6 438.679C151.544 439.761 151.516 440.667 151.516 441.394 151.516 442.121 151.74 442.635 152.188 442.933 152.617 443.212 153.409 443.353 154.566 443.353L155.601 443.353 155.601 438.932 158.707 438.932 158.707 443.353ZM172.307 435.963 148.662 435.963 148.662 432.323 172.307 432.323 172.307 435.963ZM157.42 426.809C155.965 425.652 155.238 423.74 155.238 421.073 155.238 418.387 155.965 416.474 157.42 415.337 158.857 414.18 161.03 413.602 163.94 413.602 166.832 413.602 169.014 414.16 170.488 415.28 171.943 416.399 172.671 418.331 172.671 421.073 172.671 423.797 171.943 425.719 170.488 426.838 169.014 427.957 166.832 428.516 163.94 428.516 161.03 428.516 158.857 427.947 157.42 426.809ZM168.277 424.094C169.154 423.573 169.592 422.565 169.592 421.073 169.592 419.581 169.154 418.582 168.277 418.079 167.382 417.556 165.917 417.294 163.884 417.294 161.851 417.294 160.414 417.567 159.575 418.108 158.735 418.648 158.316 419.637 158.316 421.073 158.316 422.492 158.735 423.48 159.575 424.039 160.414 424.58 161.851 424.85 163.884 424.85 165.917 424.85 167.382 424.599 168.277 424.094ZM155.601 411.313 155.601 407.731 169.201 405.1 169.201 404.429 155.937 401.239 155.937 397.516 169.201 394.327 169.201 393.655 155.601 391.053 155.601 387.442 172.307 390.997 172.307 396.762 160.834 399.391 172.307 401.993 172.307 407.758 155.601 411.313Z" fill="#000000" fill-rule="nonzero" fill-opacity="1" transform="matrix(1.0005 0 0 1 98 8.46824)"/><path d="M742.789 387.783 792.65 387.783" stroke="#000000" stroke-width="3.58174" stroke-linecap="butt" stroke-linejoin="round" stroke-miterlimit="10" stroke-opacity="1" fill="none" fill-rule="evenodd" transform="matrix(1.0005 0 0 1 98 8.46824)"/><path d="M742.789 422.518 796.656 422.518" stroke="#FF0000" stroke-width="3.58174" stroke-linecap="butt" stroke-linejoin="round" stroke-miterlimit="10" stroke-dasharray="3.58174 10.7452" stroke-opacity="1" fill="none" fill-rule="evenodd" transform="matrix(1.0005 0 0 1 98 8.46824)"/><path d="M805.487 414.032 810.889 414.032C812.362 414.032 813.462 414.34 814.191 414.956 814.936 415.552 815.31 416.505 815.31 417.81 815.31 418.743 815.151 419.47 814.834 419.992 814.517 420.514 814.041 420.925 813.407 421.224 814.974 421.764 815.758 422.93 815.758 424.721 815.758 426.213 815.366 427.286 814.581 427.939 813.799 428.573 812.66 428.89 811.168 428.89L805.487 428.89 805.487 414.032ZM811 422.064 807.139 422.064 807.139 427.436 811.112 427.436C812.081 427.436 812.819 427.23 813.322 426.82 813.826 426.41 814.078 425.692 814.078 424.666 814.078 424.125 813.976 423.668 813.77 423.294 813.566 422.921 813.296 422.651 812.959 422.483 812.325 422.203 811.671 422.064 811 422.064ZM810.833 415.488 807.139 415.488 807.139 420.608 810.973 420.608C811.886 420.608 812.558 420.393 812.987 419.965 813.416 419.517 813.63 418.854 813.63 417.977 813.63 417.101 813.398 416.467 812.93 416.075 812.482 415.683 811.784 415.488 810.833 415.488ZM826.029 421.392 826.029 426.904C826.086 427.425 826.505 427.733 827.288 427.827L827.232 429.114C826.095 429.114 825.237 428.826 824.659 428.247 823.371 428.826 822.083 429.114 820.796 429.114 819.807 429.114 819.053 428.835 818.53 428.274 818.027 427.716 817.775 426.913 817.775 425.869 817.775 424.823 818.036 424.059 818.557 423.573 819.1 423.07 819.929 422.762 821.048 422.651L824.435 422.314 824.435 421.392C824.435 420.663 824.275 420.142 823.958 419.825 823.641 419.508 823.212 419.349 822.671 419.349 821.516 419.349 820.321 419.424 819.089 419.572L818.446 419.628 818.362 418.398C819.949 418.081 821.347 417.921 822.56 417.921 823.772 417.921 824.65 418.201 825.19 418.761 825.749 419.32 826.029 420.197 826.029 421.392ZM819.426 425.785C819.426 427.091 819.967 427.744 821.048 427.744 822.019 427.744 822.979 427.585 823.93 427.268L824.435 427.073 824.435 423.546 821.243 423.854C820.609 423.91 820.144 424.096 819.845 424.413 819.565 424.712 819.426 425.169 819.426 425.785ZM832.599 419.377C831.032 419.377 830.248 419.918 830.248 421 830.248 421.503 830.425 421.858 830.78 422.064 831.152 422.268 831.974 422.483 833.242 422.707 834.51 422.93 835.406 423.247 835.929 423.657 836.469 424.05 836.74 424.796 836.74 425.896 836.74 426.997 836.385 427.809 835.676 428.332 834.969 428.853 833.932 429.114 832.571 429.114 831.675 429.114 830.631 429.012 829.437 428.806L828.794 428.695 828.878 427.297C830.518 427.538 831.75 427.66 832.571 427.66 833.411 427.66 834.045 427.529 834.474 427.268 834.902 427.006 835.117 426.568 835.117 425.953 835.117 425.318 834.931 424.89 834.557 424.666 834.202 424.442 833.391 424.236 832.123 424.05 830.855 423.844 829.96 423.546 829.437 423.154 828.914 422.762 828.654 422.044 828.654 421 828.654 419.956 829.018 419.18 829.745 418.677 830.491 418.174 831.414 417.921 832.515 417.921 833.391 417.921 834.483 418.023 835.789 418.229L836.405 418.342 836.348 419.712C834.763 419.488 833.513 419.377 832.599 419.377ZM846.509 427.547 847.154 427.492 847.181 428.751C845.558 428.992 844.159 429.114 842.983 429.114 841.453 429.114 840.363 428.667 839.709 427.771 839.057 426.876 838.729 425.477 838.729 423.573 838.729 419.805 840.232 417.921 843.235 417.921 844.672 417.921 845.744 418.331 846.453 419.153 847.181 419.956 847.544 421.224 847.544 422.959L847.46 424.189 840.381 424.189C840.381 425.384 840.596 426.27 841.025 426.849 841.453 427.408 842.2 427.687 843.264 427.687 844.326 427.687 845.409 427.64 846.509 427.547ZM845.95 422.902C845.95 421.578 845.735 420.645 845.306 420.104 844.878 419.564 844.186 419.293 843.235 419.293 842.284 419.293 841.566 419.581 841.081 420.16 840.615 420.72 840.372 421.634 840.354 422.902L845.95 422.902ZM849.974 423.742 849.974 422.23 856.495 422.23 856.495 423.742 849.974 423.742ZM861.284 419.544 861.284 428.89 859.661 428.89 859.661 419.544 858.318 419.544 858.318 418.145 859.661 418.145 859.661 417.166C859.661 415.656 859.876 414.63 860.306 414.089 860.754 413.528 861.508 413.249 862.571 413.249L864.754 413.389 864.726 414.732C863.923 414.694 863.263 414.676 862.74 414.676 862.217 414.676 861.844 414.854 861.62 415.208 861.397 415.543 861.284 416.206 861.284 417.194L861.284 418.145 864.391 418.145 864.391 419.544 861.284 419.544ZM866.466 428.89 866.466 413.473 868.091 413.473 868.091 428.89 866.466 428.89ZM870.817 423.491C870.817 421.532 871.169 420.113 871.879 419.238 872.588 418.36 873.773 417.921 875.433 417.921 877.111 417.921 878.297 418.36 878.987 419.238 879.676 420.113 880.022 421.532 880.022 423.491 880.022 425.448 879.687 426.876 879.015 427.771 878.361 428.667 877.158 429.114 875.405 429.114 873.669 429.114 872.466 428.667 871.794 427.771 871.142 426.876 870.817 425.448 870.817 423.491ZM872.495 423.462C872.495 425.029 872.681 426.131 873.055 426.765 873.428 427.399 874.221 427.716 875.433 427.716 876.646 427.716 877.437 427.408 877.812 426.792 878.184 426.158 878.37 425.058 878.37 423.491 878.37 421.904 878.157 420.814 877.727 420.215 877.317 419.619 876.553 419.32 875.433 419.32 874.314 419.32 873.539 419.619 873.111 420.215 872.701 420.814 872.495 421.895 872.495 423.462ZM881.664 418.145 883.258 418.145 885.441 427.492 885.777 427.492 888.351 418.369 890.031 418.369 892.577 427.492 892.941 427.492 895.095 418.145 896.689 418.145 894.144 428.89 891.458 428.89 889.191 420.497 886.897 428.89 884.21 428.89 881.664 418.145Z" fill="#000000" fill-rule="nonzero" fill-opacity="1" transform="matrix(1.0005 0 0 1 98 8.46824)"/><path d="M803.949 380.779 803.949 379.296 814.694 379.296 814.694 380.779 810.161 380.779 810.161 394.155 808.537 394.155 808.537 380.779 803.949 380.779ZM814.08 388.753C814.08 386.794 814.435 385.378 815.144 384.5 815.853 383.624 817.037 383.186 818.697 383.186 820.377 383.186 821.56 383.624 822.252 384.5 822.941 385.378 823.287 386.794 823.287 388.753 823.287 390.713 822.95 392.14 822.279 393.035 821.627 393.931 820.423 394.379 818.67 394.379 816.935 394.379 815.731 393.931 815.06 393.035 814.408 392.14 814.08 390.713 814.08 388.753ZM815.76 388.727C815.76 390.294 815.946 391.393 816.318 392.027 816.693 392.663 817.484 392.98 818.697 392.98 819.911 392.98 820.703 392.672 821.077 392.056 821.449 391.422 821.636 390.32 821.636 388.753 821.636 387.168 821.421 386.076 820.993 385.48 820.583 384.883 819.816 384.584 818.697 384.584 817.578 384.584 816.804 384.883 816.376 385.48 815.964 386.076 815.76 387.159 815.76 388.727ZM831.385 384.808 827.972 384.808 827.972 389.928C827.972 391.178 828.056 392 828.224 392.391 828.411 392.765 828.84 392.951 829.512 392.951L831.442 392.811 831.553 394.155C830.583 394.303 829.847 394.379 829.344 394.379 828.224 394.379 827.449 394.108 827.021 393.567 826.591 393.026 826.378 391.991 826.378 390.46L826.378 384.808 824.866 384.808 824.866 383.409 826.378 383.409 826.378 380.107 827.972 380.107 827.972 383.409 831.385 383.409 831.385 384.808ZM840.943 386.654 840.943 392.167C841 392.69 841.419 392.998 842.204 393.091L842.146 394.379C841.009 394.379 840.151 394.088 839.573 393.51 838.285 394.088 836.998 394.379 835.712 394.379 834.721 394.379 833.968 394.099 833.445 393.539 832.941 392.98 832.689 392.178 832.689 391.132 832.689 390.088 832.95 389.323 833.473 388.838 834.014 388.334 834.843 388.026 835.963 387.913L839.349 387.579 839.349 386.654C839.349 385.927 839.19 385.404 838.873 385.087 838.556 384.77 838.128 384.613 837.585 384.613 836.43 384.613 835.236 384.686 834.003 384.837L833.36 384.892 833.276 383.66C834.863 383.343 836.262 383.186 837.474 383.186 838.687 383.186 839.564 383.465 840.105 384.025 840.664 384.584 840.943 385.462 840.943 386.654ZM834.34 391.047C834.34 392.355 834.881 393.007 835.963 393.007 836.933 393.007 837.893 392.849 838.846 392.532L839.349 392.335 839.349 388.809 836.16 389.117C835.524 389.174 835.058 389.36 834.759 389.677 834.48 389.977 834.34 390.433 834.34 391.047ZM844.267 394.155 844.267 378.735 845.889 378.735 845.889 394.155 844.267 394.155ZM855.89 384.808 855.89 394.155 854.267 394.155 854.267 384.808 852.924 384.808 852.924 383.409 854.267 383.409 854.267 382.43C854.267 380.918 854.482 379.892 854.91 379.351 855.358 378.793 856.113 378.511 857.177 378.511L859.36 378.653 859.332 379.996C858.529 379.958 857.869 379.939 857.346 379.939 856.823 379.939 856.45 380.116 856.226 380.471 856.002 380.807 855.89 381.47 855.89 382.458L855.89 383.409 858.997 383.409 858.997 384.808 855.89 384.808ZM861.072 394.155 861.072 378.735 862.697 378.735 862.697 394.155 861.072 394.155ZM865.422 388.753C865.422 386.794 865.775 385.378 866.484 384.5 867.194 383.624 868.379 383.186 870.039 383.186 871.717 383.186 872.903 383.624 873.592 384.5 874.282 385.378 874.628 386.794 874.628 388.753 874.628 390.713 874.293 392.14 873.621 393.035 872.967 393.931 871.764 394.379 870.011 394.379 868.275 394.379 867.072 393.931 866.4 393.035 865.748 392.14 865.422 390.713 865.422 388.753ZM867.1 388.727C867.1 390.294 867.287 391.393 867.661 392.027 868.034 392.663 868.827 392.98 870.039 392.98 871.252 392.98 872.043 392.672 872.418 392.056 872.79 391.422 872.976 390.32 872.976 388.753 872.976 387.168 872.763 386.076 872.333 385.48 871.923 384.883 871.159 384.584 870.039 384.584 868.92 384.584 868.145 384.883 867.717 385.48 867.306 386.076 867.1 387.159 867.1 388.727ZM876.27 383.409 877.864 383.409 880.047 392.756 880.383 392.756 882.957 383.633 884.637 383.633 887.183 392.756 887.547 392.756 889.701 383.409 891.295 383.409 888.75 394.155 886.064 394.155 883.797 385.759 881.503 394.155 878.816 394.155 876.27 383.409Z" fill="#000000" fill-rule="nonzero" fill-opacity="1" transform="matrix(1.0005 0 0 1 98 8.46824)"/><path d="M217.578 570.94C223.37 570.763 238.515 574.685 252.325 569.873 266.134 565.063 287.519 557.935 300.438 542.075 313.358 526.215 319.237 503.937 329.839 474.713 340.443 445.488 354.967 371.183 364.054 366.729 373.142 362.275 375.816 424.642 384.369 447.986 392.923 471.329 398.712 496.009 415.375 506.788 432.035 517.569 463.667 518.549 484.339 512.669 505.01 506.788 526.124 484.515 539.4 471.508 552.675 458.499 557.489 434.8 563.994 434.623 570.496 434.446 573.523 457.521 578.423 470.44 583.323 483.36 588.939 505.901 593.394 512.137 597.85 518.375 602.481 516.057 605.155 507.861 607.827 499.662 606.403 479.257 609.432 462.953 612.462 446.647 619.41 423.394 623.331 410.031 627.251 396.665 628.41 379.115 632.953 382.766 637.496 386.42 643.378 412.615 650.593 431.947 657.81 451.282 664.225 484.425 676.254 498.77 688.282 513.115 697.014 510.979 722.765 518.018 748.514 525.057 795.471 534.856 830.753 541.003 866.035 547.151 915.124 552.319 934.459 554.903 953.793 557.486 944.706 556.237 946.755 556.506" stroke="#000000" stroke-width="3.58174" stroke-linecap="butt" stroke-linejoin="round" stroke-miterlimit="10" stroke-opacity="1" fill="none" fill-rule="evenodd" transform="matrix(1.0005 0 0 1 98 8.46824)"/></g></g></g></g></g></g></svg>